<?xml version="1.0" standalone="no"?><!DOCTYPE svg PUBLIC "-//W3C//DTD SVG 1.1//EN" "http://www.w3.org/Graphics/SVG/1.1/DTD/svg11.dtd"><svg t="1551519215047" class="icon" style="" viewBox="0 0 1068 1024" version="1.1" xmlns="http://www.w3.org/2000/svg" p-id="10115" xmlns:xlink="http://www.w3.org/1999/xlink" width="208.59375" height="200"><defs><style type="text/css"></style></defs><path d="M118.717217 0h831.065044v207.760696H118.717217z" fill="#CCA901" p-id="10116"></path><path d="M118.717217 415.543652H0V178.086957l118.717217-178.086957zM949.804522 415.543652H1068.521739V178.086957l-118.717217-178.086957z" fill="#9C8102" p-id="10117"></path><path d="M1009.152 1009.152H59.369739A59.547826 59.547826 0 0 1 0 949.804522V178.086957h1068.521739v771.717565c0 32.634435-26.713043 59.347478-59.369739 59.347478z" fill="#FFD300" p-id="10118"></path><path d="M638.152348 385.847652h-207.782957c-23.730087 0-44.521739-20.769391-44.521739-44.521739 0-23.730087 20.791652-44.521739 44.521739-44.521739h207.782957c23.730087 0 44.521739 20.791652 44.521739 44.521739 0 23.752348-20.791652 44.521739-44.521739 44.521739z" fill="#9C8102" p-id="10119"></path></svg>